<svg width="34" height="36" viewBox="0 0 34 36" fill="none" xmlns="http://www.w3.org/2000/svg">
<path d="M9.5 12V9.5C9.5 7.51088 10.2902 5.60322 11.6967 4.1967C13.1032 2.79018 15.0109 2 17 2C18.9891 2 20.8968 2.79018 22.3033 4.1967C23.7098 5.60322 24.5 7.51088 24.5 9.5V12M9.5 15.75V17C9.5 18.9891 10.2902 20.8968 11.6967 22.3033C13.1032 23.7098 15.0109 24.5 17 24.5C18.9891 24.5 20.8968 23.7098 22.3033 22.3033C23.7098 20.8968 24.5 18.9891 24.5 17V15.75M3.25 12C2.91848 12 2.60054 12.1317 2.36612 12.3661C2.1317 12.6005 2 12.9185 2 13.25V30.125C2 32.4875 4.0125 34.5 6.375 34.5H27.625C29.9875 34.5 32 32.5852 32 30.2227V13.25C32 12.9185 31.8683 12.6005 31.6339 12.3661C31.3995 12.1317 31.0815 12 30.75 12H3.25Z" stroke="black" stroke-width="3" stroke-linecap="round" stroke-linejoin="round"/>
</svg>
