<svg width="22" height="22" viewBox="0 0 22 22" fill="none" xmlns="http://www.w3.org/2000/svg">
<path d="M6.49844 10.0745L10.3594 14.7146C10.4376 14.8086 10.5355 14.8842 10.6462 14.9361C10.7569 14.988 10.8777 15.015 11 15.015C11.1223 15.015 11.2431 14.988 11.3538 14.9361C11.4645 14.8842 11.5624 14.8086 11.6406 14.7146L15.5016 10.0745C15.6027 9.9528 15.6672 9.80481 15.6874 9.64784C15.7075 9.49087 15.6826 9.33141 15.6154 9.1881C15.5483 9.04479 15.4417 8.92356 15.3082 8.8386C15.1747 8.75364 15.0197 8.70846 14.8615 8.70833L7.13854 8.70833C6.98028 8.70846 6.82533 8.75364 6.69181 8.8386C6.55829 8.92356 6.45172 9.04479 6.38458 9.1881C6.31743 9.33141 6.29248 9.49087 6.31264 9.64784C6.33281 9.80481 6.39725 9.9528 6.49844 10.0745Z" stroke="black" stroke-width="2" stroke-miterlimit="10"/>
<path d="M1 11C1 16.5208 5.47917 21 11 21C16.5208 21 21 16.5208 21 11C21 5.47917 16.5208 1 11 1C5.47917 1 1 5.47917 1 11Z" stroke="black" stroke-width="2" stroke-miterlimit="10"/>
</svg>
