<svg width="24" height="28" viewBox="0 0 24 28" fill="none" xmlns="http://www.w3.org/2000/svg">
<path d="M4.56055 5.50012C4.5261 4.94891 4.05133 4.53 3.50012 4.56445C2.94891 4.5989 2.53 5.07367 2.56445 5.62488L4.56055 5.50012ZM4.73438 24.3125L5.73312 24.2612L5.73243 24.2501L4.73438 24.3125ZM19.2656 24.3125L18.2676 24.2501L18.2675 24.2515L19.2656 24.3125ZM21.4356 5.62488C21.47 5.07367 21.0511 4.5989 20.4999 4.56445C19.9487 4.53 19.4739 4.94891 19.4394 5.50012L21.4356 5.62488ZM1.6875 4.5625C1.13522 4.5625 0.6875 5.01022 0.6875 5.5625C0.6875 6.11478 1.13522 6.5625 1.6875 6.5625V4.5625ZM22.3125 6.5625C22.8648 6.5625 23.3125 6.11478 23.3125 5.5625C23.3125 5.01022 22.8648 4.5625 22.3125 4.5625V6.5625ZM8.25 5.56251H7.25C7.25 6.11479 7.69772 6.56251 8.25 6.56251V5.56251ZM8.25 3.21876L9.25 3.21876L9.25 3.21583L8.25 3.21876ZM9.65625 1.81251L9.65332 2.81251H9.65625V1.81251ZM14.3438 1.81251L14.3438 2.81251L14.3467 2.8125L14.3438 1.81251ZM15.75 3.21876L14.75 3.21583V3.21876H15.75ZM15.75 5.56251V6.56251C16.3023 6.56251 16.75 6.11479 16.75 5.56251H15.75ZM13 9.31251C13 8.76022 12.5523 8.31251 12 8.31251C11.4477 8.31251 11 8.76022 11 9.31251H13ZM11 22.4375C11 22.9898 11.4477 23.4375 12 23.4375C12.5523 23.4375 13 22.9898 13 22.4375H11ZM8.78061 9.27681C8.7609 8.72488 8.29749 8.29343 7.74556 8.31314C7.19363 8.33286 6.76218 8.79626 6.78189 9.3482L8.78061 9.27681ZM7.25064 22.4732C7.27035 23.0251 7.73376 23.4566 8.28569 23.4369C8.83762 23.4172 9.26907 22.9537 9.24936 22.4018L7.25064 22.4732ZM17.2181 9.3482C17.2378 8.79626 16.8064 8.33286 16.2544 8.31314C15.7025 8.29343 15.2391 8.72488 15.2194 9.27681L17.2181 9.3482ZM14.7506 22.4018C14.7309 22.9537 15.1624 23.4172 15.7143 23.4369C16.2662 23.4566 16.7297 23.0251 16.7494 22.4732L14.7506 22.4018ZM2.56445 5.62488L3.73632 24.3749L5.73243 24.2501L4.56055 5.50012L2.56445 5.62488ZM3.73569 24.3638C3.81615 25.9298 4.99804 27.1875 6.60938 27.1875V25.1875C6.15821 25.1875 5.76392 24.862 5.73306 24.2612L3.73569 24.3638ZM6.60938 27.1875H17.3906V25.1875H6.60938V27.1875ZM17.3906 27.1875C19.0156 27.1875 20.1692 25.9214 20.2638 24.3735L18.2675 24.2515C18.2297 24.8704 17.8364 25.1875 17.3906 25.1875V27.1875ZM20.2637 24.3749L21.4356 5.62488L19.4394 5.50012L18.2676 24.2501L20.2637 24.3749ZM1.6875 6.5625H22.3125V4.5625H1.6875V6.5625ZM9.25 5.56251V3.21876H7.25V5.56251H9.25ZM9.25 3.21583C9.24984 3.16282 9.26017 3.1103 9.28038 3.0613L7.4315 2.29864C7.31076 2.59135 7.24908 2.90505 7.25 3.22169L9.25 3.21583ZM9.28038 3.0613C9.30059 3.01229 9.3303 2.96777 9.36778 2.93029L7.95357 1.51607C7.72967 1.73997 7.55225 2.00592 7.4315 2.29864L9.28038 3.0613ZM9.36778 2.93029C9.40526 2.8928 9.44979 2.8631 9.49879 2.84289L8.73613 0.994009C8.44342 1.11475 8.17746 1.29218 7.95357 1.51607L9.36778 2.93029ZM9.49879 2.84289C9.54779 2.82267 9.60031 2.81235 9.65332 2.8125L9.65918 0.81251C9.34254 0.811583 9.02884 0.873265 8.73613 0.994009L9.49879 2.84289ZM9.65625 2.81251H14.3438V0.812506H9.65625V2.81251ZM14.3467 2.8125C14.3997 2.81235 14.4522 2.82267 14.5012 2.84289L15.2639 0.994009C14.9712 0.873265 14.6575 0.811583 14.3408 0.81251L14.3467 2.8125ZM14.5012 2.84289C14.5502 2.8631 14.5947 2.89281 14.6322 2.93029L16.0464 1.51607C15.8225 1.29217 15.5566 1.11475 15.2639 0.994009L14.5012 2.84289ZM14.6322 2.93029C14.6697 2.96777 14.6994 3.01229 14.7196 3.0613L16.5685 2.29864C16.4478 2.00593 16.2703 1.73997 16.0464 1.51607L14.6322 2.93029ZM14.7196 3.0613C14.7398 3.1103 14.7502 3.16282 14.75 3.21583L16.75 3.22169C16.7509 2.90505 16.6892 2.59135 16.5685 2.29864L14.7196 3.0613ZM14.75 3.21876V5.56251H16.75V3.21876H14.75ZM15.75 4.56251H8.25V6.56251H15.75V4.56251ZM11 9.31251V22.4375H13V9.31251H11ZM6.78189 9.3482L7.25064 22.4732L9.24936 22.4018L8.78061 9.27681L6.78189 9.3482ZM15.2194 9.27681L14.7506 22.4018L16.7494 22.4732L17.2181 9.3482L15.2194 9.27681Z" fill="black"/>
</svg>
