<svg width="22" height="22" viewBox="0 0 22 22" fill="none" xmlns="http://www.w3.org/2000/svg">
<path d="M15.5016 11.9255L11.6406 7.28542C11.5624 7.19141 11.4645 7.11577 11.3538 7.06386C11.2431 7.01195 11.1223 6.98504 11 6.98504C10.8777 6.98504 10.7569 7.01195 10.6462 7.06386C10.5355 7.11577 10.4376 7.19141 10.3594 7.28542L6.49844 11.9255C6.39725 12.0472 6.33281 12.1952 6.31264 12.3522C6.29248 12.5091 6.31743 12.6686 6.38458 12.8119C6.45172 12.9552 6.55829 13.0764 6.69181 13.1614C6.82533 13.2464 6.98028 13.2915 7.13854 13.2917L14.8615 13.2917C15.0197 13.2915 15.1747 13.2464 15.3082 13.1614C15.4417 13.0764 15.5483 12.9552 15.6154 12.8119C15.6826 12.6686 15.7075 12.5091 15.6874 12.3522C15.6672 12.1952 15.6027 12.0472 15.5016 11.9255Z" stroke="black" stroke-width="2" stroke-miterlimit="10"/>
<path d="M21 11C21 5.47917 16.5208 1 11 1C5.47917 1 1 5.47917 1 11C1 16.5208 5.47917 21 11 21C16.5208 21 21 16.5208 21 11Z" stroke="black" stroke-width="2" stroke-miterlimit="10"/>
</svg>
